FFmpeg version SVN-r25716, Copyright (c) 2000-2010 the FFmpeg developers  built on Nov 10 2010 12:23:18 with gcc 4.1.2 20080704 (Red Hat 4.1.2-48)  configuration: --enable-libmp3lame --enable-shared --disable-mmx --arch=x86_64  libavutil     50.33. 0 / 50.33. 0  libavcore      0.12. 1 /  0.12. 1  libavcodec    52.94. 4 / 52.94. 4  libavformat   52.84. 0 / 52.84. 0  libavdevice   52. 2. 2 / 52. 2. 2  libavfilter    1.59. 0 /  1.59. 0  libswscale     0.12. 0 /  0.12. 0Seems stream 0 codec frame rate differs from container frame rate: 1200.00 (1200/1) -> 5.00 (5/1)Input #0, mov,mp4,m4a,3gp,3g2,mj2, from '/RAID10/data/converted_video_files/8074.mov':  Metadata:    major_brand     : qt      minor_version   : 537199360    compatible_brands: qt    Duration: 00:00:40.00, start: 0.000000, bitrate: 587 kb/s    Stream #0.0(eng): Video: h264, yuv420p, 324x308, 586 kb/s, 5 fps, 5 tbr, 600 tbn, 1200 tbc[buffer @ 0x1704b1f0] w:324 h:308 pixfmt:yuv420pOutput #0, flv, to '/RAID10/data/converted_video_files/8074.flv':  Metadata:    encoder         : Lavf52.84.0    Stream #0.0(eng): Video: flv, yuv420p, 324x308, q=2-31, 600 kb/s, 1k tbn, 24 tbcStream mapping:  Stream #0.0 -> #0.0Press [q] to stop encodingframe=   66 fps=  0 q=8.5 size=     560kB time=13.04 bitrate= 351.8kbits/s    frame=  130 fps=129 q=5.5 size=    1105kB time=25.83 bitrate= 350.5kbits/s    frame=  195 fps=129 q=6.2 size=    1888kB time=38.83 bitrate= 398.2kbits/s    frame=  200 fps=129 q=6.7 Lsize=    1952kB time=39.83 bitrate= 401.5kbits/s    video:1949kB audio:0kB global headers:0kB muxing overhead 0.170853%